# Alias OBJ Model File
# Exported from SketchUp, (c) 2000-2012 Trimble Navigation Limited
# File units = meters

mtllib 71fb90dd-ca1b-49cf-8c2f-d4e9a407f6fd.mtl

g Mesh1 Model

usemtl FrontColor
v 7.74965 0 -2.82241
vt -305.105 111.118
vn 0 -1 -0
v 2.50366 0 -2.31013
vt -98.5693 90.9501
v 2.50366 0 -2.82241
vt -98.5693 111.118
f 1/1/1 2/2/1 3/3/1

v 7.74965 0 -2.31013
vt -305.105 90.9501
f 2/2/1 1/1/1 4/4/1

usemtl BackColor
vn -0 1 0
f 3/3/2 2/2/2 1/1/2

usemtl FrontColor
vt -90.9501 0
vn -1 0 -0
v 2.50366 3 -2.82241
vt -111.118 118.11
vt -111.118 0
f 2/5/3 5/6/3 3/7/3

v 2.50366 3 -2.31013
vt -90.9501 118.11
f 5/6/3 2/5/3 6/8/3

usemtl BackColor
vn 1 -0 0
f 6/8/4 2/5/4 5/6/4

usemtl FrontColor
vt 98.5693 0
vn 0 0 1
v 7.74965 3 -2.31013
vt 305.105 118.11
vt 98.5693 118.11
f 2/9/5 7/10/5 6/11/5

vt 305.105 0
f 7/10/5 2/9/5 4/12/5

usemtl BackColor
vn -0 -0 -1
f 4/12/6 2/9/6 7/10/6

f 4/4/2 1/1/2 2/2/2

usemtl FrontColor
vt 111.118 0
vn 1 0 -0
vt 90.9501 118.11
vt 90.9501 0
f 1/13/7 7/14/7 4/15/7

v 7.74965 3 -2.82241
vt 111.118 118.11
f 7/14/7 1/13/7 8/16/7

usemtl BackColor
vn -1 -0 0
f 4/15/8 7/14/8 1/13/8

f 8/16/8 1/13/8 7/14/8

usemtl FrontColor
vt -305.105 0
vn 0 0 -1
vt -98.5693 118.11
vt -305.105 118.11
f 1/17/9 5/18/9 8/19/9

vt -98.5693 0
f 5/18/9 1/17/9 3/20/9

usemtl BackColor
vn -0 -0 1
f 3/20/10 1/17/10 5/18/10

f 8/19/10 5/18/10 1/17/10

usemtl FrontColor
vt 98.5693 111.118
vn 0 1 -0
vt 305.105 90.9501
vt 305.105 111.118
f 5/21/11 7/22/11 8/23/11

vt 98.5693 90.9501
f 7/22/11 5/21/11 6/24/11

usemtl BackColor
vn -0 -1 0
f 6/24/12 5/21/12 7/22/12

f 8/23/12 7/22/12 5/21/12

f 6/11/6 7/10/6 2/9/6

f 3/7/4 5/6/4 2/5/4

g Mesh2 Model

l 3 1

l 3 2

l 3 5

l 5 6

l 5 8

l 7 8

l 6 7

l 2 6

l 2 4

l 4 1

l 4 7

l 1 8

